<svg xmlns="http://www.w3.org/2000/svg" width="1194.667" height="1194.667" version="1.0" viewBox="0 0 896 896"><path d="M546.2 215.7c-14.6 9-40.7 32.4-54.4 49-6 7.2-6.4 7.5-9.8 6.9-1.9-.3-6.2-1.9-9.4-3.6-3.3-1.7-6.1-2.9-6.3-2.7-.2.2.6 1.5 1.7 3 2.5 3.1 2.5 3.7.3 3.7-4.1 0-16.4-8.9-20.6-14.9-2.9-4.2-2.9-1.7-.1 5.5 2.2 5.5 4.2 8.4 9.8 14 7 7 7 7.1 3.6 6.2-11.3-2.8-13.7-3-19.3-1.8-3.2.6-5.7 1.3-5.7 1.6 0 .3 1 .9 2.3 1.5 3.5 1.5-12.6.1-17.3-1.6-4.8-1.7-5.1-.6-.7 3.1 4.6 3.9 10.8 6.4 18 7.3l6.2.7-7.5 1.9c-10.1 2.5-24.1 2.4-33.5-.3-13.1-3.7-12.4-3.7-8.1.1 5.7 5 15.4 9.6 24.8 11.6l8.2 1.7-6.4 1.3c-3.6.7-13 3.3-21 5.8-11.5 3.5-16.5 4.6-24.4 5-8.9.5-9.6.7-7.5 1.9 8.1 4.6 23.7 6.8 31.7 4.5 1.7-.5 3.2-.7 3.2-.3-.1.4-3.1 2.9-6.7 5.7-20.1 15.2-29.3 20.5-44.7 26-7.7 2.8-8.6 3.4-6.5 4 4.3 1.4 22.1.9 26.9-.8 2.4-.9 4.6-1.5 4.7-1.3.5.5-3.5 5.3-16.2 19.6-15.3 17.2-20.9 23.9-20.4 24.4.7.7 17-4.9 22.5-7.7 2.8-1.4 6.5-3.8 8.3-5.2 1.7-1.5 3.1-2.5 3.1-2.2 0 .2-2.6 3.6-5.8 7.5-7.9 9.7-14.5 21.2-17.7 30.6-2.9 8.6-3 13.2-.2 8 1.6-3.1 15.4-16.4 16.9-16.4.4 0-.8 3-2.7 6.7-1.9 3.8-4.3 9.8-5.2 13.5-1.5 5.7-1.6 7.6-.5 13.7.6 3.8 2.4 9.6 3.9 12.8l2.7 5.8.5-3.5c.8-4.5 7.1-23.2 8.3-24.5 2.6-2.8-2 32.1-5.2 39.3-2.3 5.1-2.3 5.2-1.2 5.2.5 0 3.3-3 6.2-6.8 3-3.7 5.7-7.1 6.1-7.5.4-.5.1 1.7-.7 5-1.1 4.6-1.1 7.8-.3 15.3.6 5.2 1.2 9.7 1.4 10.1.2.3-1.8 2.2-4.4 4.3-12.4 9.4-18.1 24.8-18.1 48.7v10.6l7.4 1.2c9.3 1.5 20.1 6.6 26.5 12.6l4.8 4.5 6.9-1.4c19.8-4.2 38-5.5 47.4-3.5 5.4 1.2 5.7 1.5 3.5 4.5-2.4 3.2-1.7 3.4 3.9.9 15.5-6.9 34.5-4.6 45.4 5.4 3.9 3.6 4 4.6.7 6.7-1.4.9-2.5 1.9-2.5 2.3 0 .4 2.1 1.8 4.8 3.1 9.5 4.8 22.1 3.8 40-3.2 5.7-2.2 10.6-3.8 10.9-3.5.3.3-1.1 3.6-3.2 7.2-2 3.7-3.5 6.8-3.3 6.9.1.2 4.9.6 10.6.9 12.2.7 11.3 1.5 16.6-14.3 5.5-16.5 6.9-26.2 6.3-42.5-.6-16.4-2-22.6-8.2-35-5.1-10.4-11.2-17.3-18.8-21.2-4.4-2.3-6.5-2.7-14.1-2.8-8.7-.1-8.9-.1-10.4-3-3-5.8-12.2-26.8-11.9-27.1.5-.5 8.7 10.6 8.7 11.7 0 .5.5.9 1.1.9 1.7 0 .5-9.3-2-16.1-1.2-3.1-4.5-9.2-7.5-13.7-2.9-4.5-5.2-8.2-5.1-8.2.5 0 19.6 11 21.8 12.5 6.5 4.6 2.1-1.8-13.2-18.8-5.5-6.2-11.5-13.2-13.3-15.6-3.6-5-4.1-4.8 5.7-2.2 4.7 1.2 9.5 1.4 9.5.3 0-.4-2.7-1.5-6-2.5-6.6-1.9-14-8-14-11.4 0-3.7 3.6-5.7 10.8-6.1 11-.6 20.1 3.8 37.7 18.3 18.3 15.1 33.7 18.2 51.1 10.1 6.2-2.9 13.4-9.1 13.4-11.7 0-1-3.1-4.3-7.2-7.7-10.3-8.4-24.1-23-27.7-29.3-2.6-4.6-3.1-6.4-3.1-12.4 0-3.9.7-9.7 1.5-13 3.1-12.8 1.7-19.3-7.3-34.8-7.4-12.6-10.2-20.6-10.2-28.9 0-8.3 1.5-13.4 8.9-31.2 6.5-15.3 8.1-20.9 6.3-22-2.2-1.3-28.4 14.6-30.3 18.4-1.5 3.2-7 34.6-6.3 36.4.5 1.4.4 1.7-.4 1.2-2.6-1.6-1.3-11.4 4.8-37.1 3.7-15.5 5.8-40.4 3.5-41.2-.6-.2-3.9 1.4-7.3 3.4zm13.6 127.4c3.6 1.7 7.1 4.4 8.3 6.2l2.2 3.2-3.4-3.1c-4.8-4.5-11.5-7.6-17.9-8.4l-5.5-.7 5.1-.2c3.8-.1 6.6.6 11.2 3zm2.6 6.9c3.6 3.2 7.1 10.5 6.4 13.5-.5 2.8-9.6-6-11.3-11-2.1-6.4-.5-7.2 4.9-2.5z"/><path d="M291 482.7c-25.3 16.8-38.3 40.2-36.7 66.3.2 4.8 1.4 11 2.5 14.2 2.2 6.3 1.9 6.9-2.2 3.7-3.6-2.9-5.8-7.4-6.6-13.9l-.7-5.5-1.4 3c-.9 2.1-1.4 6.9-1.4 15.5 0 11 .3 13.1 2.3 17.5 1.3 2.7 3.7 6.5 5.4 8.2 2.7 2.8 2.9 3.3 1.3 3.3-1 0-3.8-1.2-6.2-2.6-2.5-1.4-4.6-2.4-4.8-2.2-1 1 6.8 18.4 10.8 24.1 5.6 7.8 11 12.5 19.5 16.7 3.4 1.7 6.2 3.3 6.2 3.7 0 .3-3 .4-6.7.1-7.5-.6-13.3-3-20-8.5-2.4-1.9-4.3-3.1-4.3-2.7 0 .4 2.3 5 5.2 10.2 12.4 22.4 26.5 33.1 52.3 39.7l9 2.3-4.5 2.1c-5 2.3-18.6 2.9-22.1 1.1-1.2-.7-1.9-.7-1.9-.1 0 1.3 9.3 7.6 19 12.9 10.3 5.6 24.4 10.2 31.4 10.2 4.9 0 6.7.6 14.1 4.9 12.6 7.2 32.6 13.1 44.4 13.1h4.5l-4.1-4.3c-3.8-4-7.3-9.4-7.3-11.6 0-.5 2.4.4 5.3 1.9 13.7 7.5 34.6 12 55.1 12 13.1 0 13.1 0 10.6-2-1.4-1-2.2-2.1-1.9-2.4.3-.4 10-1.7 21.5-3.1 36.7-4.4 40.2-5.5 72.1-24.2 8.3-4.8 16.9-9.8 19-11l3.8-2.2-9-.1c-14.6-.2-14.6-1 .1-6.8 31.8-12.6 49.3-14.7 66.9-8.1 3.1 1.2 5.9 1.9 6.2 1.6.7-.8-3.9-8.2-8.8-14.1-16.3-19.5-40.2-28.6-78.2-29.9l-6.8-.2 4.6-6.2c2.5-3.5 4.5-6.5 4.5-6.8 0-.3-2.1.6-4.8 1.9-9.6 4.9-18.5 6.9-28.6 6.4-8-.3-9.9-.8-14.6-3.4-7.4-4.2-8.3-5.9-4.6-8.8l2.8-2.3-2.3-2.3c-4.5-4.3-10.8-6.3-20.5-6.8-10.8-.5-18.1 1.5-30.2 8-4.1 2.2-7.6 3.7-7.9 3.5-.7-.8 1.5-4.6 5.3-9.3 1.8-2.3 3-4.4 2.7-4.8-2-2-28.2.6-45.1 4.5l-9.3 2.1-3.6-4.1c-4.6-5.4-10.4-9.3-17.8-12-5.9-2.1-18.5-4.3-18.5-3.2 0 .3 2.8 3.1 6.3 6.2 3.4 3.1 5.9 6 5.5 6.4-1.7 1.8-14.4-6-21.3-13-7.5-7.6-16.5-22.8-16.5-27.9 0-1.4-.4-2.6-.9-2.6-1.1 0-1.7 1.7-2.6 7.8l-.7 4.4-4.7-6.6c-2.5-3.6-5.6-8.2-6.8-10.3l-2.2-3.8-.1 3.1c0 1.7.7 5 1.5 7.3.8 2.2 1.2 4.1 1 4.1-.8 0-7.6-12-9.2-16.1-.9-2.7-1.8-9.2-2.2-16.4l-.6-12-4.5 8.7c-2.4 4.8-4.7 8.5-5.1 8.2-.4-.2-1.3-3.7-1.9-7.7-1.6-9.4-.1-19.9 3.9-27.4 1.6-2.9 2.6-5.3 2.2-5.3-.3 0-3.1 1.6-6.1 3.7z"/></svg>